<svg xmlns="http://www.w3.org/2000/svg" viewBox="0 0 400 400">
  <rect width="400" height="400" fill="#101015"/>
  <g fill="none" stroke="#AFAFBC" stroke-width="10" stroke-linecap="round" stroke-linejoin="round">
    <path d="M156 104 L112 122 L88 196 L142 214 L142 314 Q142 324 152 324 L248 324 Q258 324 258 314 L258 214 L312 196 L288 122 L244 104"/>
    <path d="M156 104 Q160 66 200 66 Q240 66 244 104 Q222 88 200 88 Q178 88 156 104 Z"/>
    <rect x="164" y="244" width="72" height="42" rx="8"/>
    <path d="M186 112 L184 142"/><path d="M212 112 L214 142"/>
  </g>
  <circle cx="200" cy="204" r="26" fill="none" stroke="#E9E9EC" stroke-width="8"/>
  <circle cx="214" cy="195" r="21" fill="#101015"/>
</svg>